<?xml version="1.0" standalone="no"?>
<!DOCTYPE svg PUBLIC "-//W3C//DTD SVG 20010904//EN"
 "http://www.w3.org/TR/2001/REC-SVG-20010904/DTD/svg10.dtd">
<svg version="1.0" xmlns="http://www.w3.org/2000/svg"
 width="264.000000pt" height="264.000000pt" viewBox="0 0 264.000000 264.000000"
 preserveAspectRatio="xMidYMid meet">
<metadata>
Created by potrace 1.14, written by Peter Selinger 2001-2017
</metadata>
<g transform="translate(0.000000,264.000000) scale(0.100000,-0.100000)"
fill="#000000" stroke="none">
<path d="M1120 2625 c-188 -30 -374 -103 -539 -212 -110 -73 -279 -242 -354
-354 -263 -396 -299 -883 -97 -1306 313 -658 1100 -936 1757 -623 521 248 824
815 738 1380 -21 142 -59 261 -125 395 -252 513 -819 808 -1380 720z m447 -20
c469 -91 850 -430 998 -885 151 -468 28 -977 -321 -1324 -512 -512 -1338 -512
-1848 0 -512 512 -512 1338 0 1848 195 195 452 326 725 370 115 19 327 15 446
-9z"/>
<path d="M479 2252 c-39 -20 -62 -41 -84 -77 l-30 -48 0 -807 0 -807 30 -48
c22 -36 45 -57 84 -77 l53 -28 788 0 788 0 53 28 c39 20 62 41 84 77 l30 48 0
807 0 807 -30 48 c-22 36 -45 57 -84 77 l-53 28 -788 0 -788 0 -53 -28z m1571
-932 l0 -730 -730 0 -730 0 0 730 0 730 730 0 730 0 0 -730z"/>
<path d="M870 1515 l-195 -195 198 -198 198 -197 80 84 80 85 -113 113 -113
113 113 113 113 113 -77 82 c-41 45 -79 82 -82 82 -4 0 -95 -88 -202 -195z"/>
<path d="M1486 1628 l-77 -82 113 -113 113 -113 -113 -113 -113 -113 80 -85
80 -84 198 197 198 198 -195 195 c-107 107 -198 195 -202 195 -3 0 -41 -37
-82 -82z"/>
</g>
</svg>
